HIERARCHY
ROOT Hips
{
	OFFSET 0.000000 0.000000 0.000000
	CHANNELS 6 Xposition Yposition Zposition Xrotation Yrotation Zrotation
	JOINT LeftUpLeg_virtual
	{
		OFFSET 0.000000 0.000000 0.000000
		CHANNELS 3 Xrotation Yrotation Zrotation
		JOINT LeftUpLeg
		{
			OFFSET 15.427100 -6.655098 0.678600
			CHANNELS 3 Xrotation Yrotation Zrotation
			JOINT LeftLeg
			{
				OFFSET 4.081073 -39.591068 13.024000
				CHANNELS 3 Xrotation Yrotation Zrotation
				JOINT LeftFoot
				{
					OFFSET -4.081074 -37.707932 -15.979700
					CHANNELS 3 Xrotation Yrotation Zrotation
					JOINT LeftToeBase
					{
						OFFSET 5.346399 -15.068900 20.645000
						CHANNELS 3 Xrotation Yrotation Zrotation
						JOINT LeftToe_End
						{
							OFFSET 2.754700 0.931300 11.300900
							CHANNELS 3 Xrotation Yrotation Zrotation
							End Site
							{
								OFFSET 0 0 0
							}
						}
					}
				}
			}
		}
	}
	JOINT RightUpLeg_virtual
	{
		OFFSET 0.000000 0.000000 0.000000
		CHANNELS 3 Xrotation Yrotation Zrotation
		JOINT RightUpLeg
		{
			OFFSET -15.569500 -6.655098 0.678600
			CHANNELS 3 Xrotation Yrotation Zrotation
			JOINT RightLeg
			{
				OFFSET -4.081825 -39.591045 13.023800
				CHANNELS 3 Xrotation Yrotation Zrotation
				JOINT RightFoot
				{
					OFFSET 4.081824 -37.707954 -15.979600
					CHANNELS 3 Xrotation Yrotation Zrotation
					JOINT RightToeBase
					{
						OFFSET -5.346400 -15.068900 20.645000
						CHANNELS 3 Xrotation Yrotation Zrotation
						JOINT RightToe_End
						{
							OFFSET -2.754700 0.931300 11.300900
							CHANNELS 3 Xrotation Yrotation Zrotation
							End Site
							{
								OFFSET 0 0 0
							}
						}
					}
				}
			}
		}
	}
	JOINT Spine_virtual
	{
		OFFSET 0.000000 0.000000 0.000000
		CHANNELS 3 Xrotation Yrotation Zrotation
		JOINT Spine
		{
			OFFSET -0.279200 12.230698 -2.892100
			CHANNELS 3 Xrotation Yrotation Zrotation
			JOINT Spine1
			{
				OFFSET -0.232667 10.192268 -1.242267
				CHANNELS 3 Xrotation Yrotation Zrotation
				JOINT Spine1_split
				{
					OFFSET -0.232667 10.192268 -1.242267
					CHANNELS 3 Xrotation Yrotation Zrotation
					JOINT Spine2
					{
						OFFSET -0.232667 10.192268 -1.242267
						CHANNELS 3 Xrotation Yrotation Zrotation
						JOINT Neck_virtual
						{
							OFFSET 0.000000 0.000000 0.000000
							CHANNELS 3 Xrotation Yrotation Zrotation
							JOINT Neck
							{
								OFFSET -0.418800 17.814194 8.416900
								CHANNELS 3 Xrotation Yrotation Zrotation
								JOINT Head
								{
									OFFSET 0.000000 7.031097 3.806800
									CHANNELS 3 Xrotation Yrotation Zrotation
									JOINT HeadTop_End
									{
										OFFSET 0.000000 24.646606 12.978600
										CHANNELS 3 Xrotation Yrotation Zrotation
										End Site
										{
											OFFSET 0 0 0
										}
									}
								}
							}
						}
						JOINT LeftShoulder_virtual
						{
							OFFSET 0.000000 0.000000 0.000000
							CHANNELS 3 Xrotation Yrotation Zrotation
							JOINT LeftShoulder
							{
								OFFSET 8.476499 7.247704 -3.868750
								CHANNELS 3 Xrotation Yrotation Zrotation
								JOINT LeftShoulder_split
								{
									OFFSET 8.476499 7.247704 -3.868750
									CHANNELS 3 Xrotation Yrotation Zrotation
									JOINT LeftArm
									{
										OFFSET 9.308998 -2.777710 0.208600
										CHANNELS 3 Xrotation Yrotation Zrotation
										JOINT LeftForeArm
										{
											OFFSET 29.972298 0.000000 0.000000
											CHANNELS 3 Xrotation Yrotation Zrotation
											JOINT LeftHand
											{
												OFFSET 26.026505 0.000000 0.000000
												CHANNELS 3 Xrotation Yrotation Zrotation
												End Site
												{
													OFFSET 0 0 0
												}
											}
										}
									}
								}
							}
						}
						JOINT RightShoulder_virtual
						{
							OFFSET 0.000000 0.000000 0.000000
							CHANNELS 3 Xrotation Yrotation Zrotation
							JOINT RightShoulder
							{
								OFFSET -7.570500 7.247704 -3.868750
								CHANNELS 3 Xrotation Yrotation Zrotation
								JOINT RightShoulder_split
								{
									OFFSET -7.570500 7.247704 -3.868750
									CHANNELS 3 Xrotation Yrotation Zrotation
									JOINT RightArm
									{
										OFFSET -9.308998 -2.777710 0.208500
										CHANNELS 3 Xrotation Yrotation Zrotation
										JOINT RightForeArm
										{
											OFFSET -29.972300 0.000000 0.000000
											CHANNELS 3 Xrotation Yrotation Zrotation
											JOINT RightHand
											{
												OFFSET -26.026505 0.000000 0.000000
												CHANNELS 3 Xrotation Yrotation Zrotation
												End Site
												{
													OFFSET 0 0 0
												}
											}
										}
									}
								}
							}
						}
					}
				}
			}
		}
	}
}
MOTION
Frames: 5
Frame Time: 0.03333333
9.870997 60.307854 57.708294 0.000000 0.000000 0.000000 -17.002018 -50.378516 -10.629122 -45.172716 -8.999050 35.509006 54.949340 -7.681636 3.735767 -3.496317 -10.554334 -31.904032 -2.217419 0.225168 1.209608 0.000000 0.000000 0.000000 -18.058585 -45.165770 -9.818707 -23.263997 1.782117 -47.017806 75.043869 15.893266 -5.532009 -5.867646 -7.880055 20.506825 -15.925206 -1.121520 8.751947 0.000000 0.000000 0.000000 -16.511147 -42.973194 -10.761294 25.634550 4.167776 -10.198927 -0.815124 1.247763 0.404402 1.674119 -0.915359 1.066640 0.000000 0.000000 0.000000 0.808833 0.842115 0.867270 1.232664 14.939227 0.521321 0.946532 21.827939 -5.112237 0.000000 0.000000 0.000000 0.107961 1.025437 0.870893 0.839963 1.689718 -8.412526 -0.026288 -2.283724 2.069733 -60.055961 5.283668 -44.127014 -175.561844 -67.270294 -173.910290 0.000000 0.000000 0.000000 0.135747 0.470171 0.683416 2.668100 12.082348 -4.162471 -8.057419 -1.953307 2.042511 -45.185448 22.610803 86.883544 -174.865342 64.808223 173.003214 0.000000 0.000000 0.000000 
9.036079 61.730503 54.310970 0.000000 0.000000 0.000000 -16.275777 -50.118764 -8.376489 -42.562023 -8.079559 34.837431 48.525321 -8.111040 3.776563 0.496826 -11.026032 -33.777768 -2.475779 0.264504 0.776119 0.000000 0.000000 0.000000 -18.707128 -44.758756 -8.195451 -21.891849 -0.417419 -46.761374 74.502488 15.838509 -5.880425 -13.217949 -10.818098 23.855204 -13.758191 -0.186664 5.126229 0.000000 0.000000 0.000000 -17.979484 -43.781260 -9.935074 24.414159 5.269397 -9.368778 -0.213581 1.393596 -0.273864 0.836760 -0.222941 1.232641 0.000000 0.000000 0.000000 1.168148 0.945275 0.196216 1.608385 14.569162 0.394056 3.055054 21.349672 -5.539522 0.000000 0.000000 0.000000 0.725622 1.162348 0.180278 0.740537 2.631697 -8.155756 -0.110551 -3.581548 2.221992 -58.660287 5.319882 -45.402252 -176.720708 -65.473647 -174.751196 0.000000 0.000000 0.000000 0.698002 0.572134 -0.053445 2.491913 12.837518 -4.002874 -7.933643 -1.057914 1.258769 -46.570289 20.613557 87.422132 -173.635785 67.442388 172.075538 0.000000 0.000000 0.000000 
8.162081 63.482384 50.778107 0.000000 0.000000 0.000000 -14.284357 -48.831526 -5.386977 -41.174262 -7.224855 33.639030 42.347730 -7.970520 3.810293 3.848289 -11.636721 -33.661716 -2.821637 0.260529 0.197414 0.000000 0.000000 0.000000 -17.789808 -43.646466 -5.759106 -19.192914 -3.361837 -45.278734 72.841823 14.533908 -5.476804 -22.367715 -14.670970 23.081009 -8.897511 0.437518 2.615813 0.000000 0.000000 0.000000 -17.992416 -43.915207 -8.120951 23.159303 6.223458 -8.740667 0.346940 1.471791 -0.981607 -0.015990 0.513601 1.366052 0.000000 0.000000 0.000000 1.419900 1.027331 -0.533434 1.947316 13.968798 0.384847 4.365630 20.253871 -5.458759 0.000000 0.000000 0.000000 1.254173 1.260619 -0.515238 0.688551 3.200235 -7.719757 -0.391401 -4.269890 1.802557 -57.972692 4.364534 -46.281082 -178.238144 -63.918509 -176.038004 0.000000 0.000000 0.000000 1.226905 0.654091 -0.829105 2.404151 13.741575 -4.394995 -6.980347 0.362047 0.623402 -47.861956 18.865399 87.375229 -172.995182 68.383902 171.561702 0.000000 0.000000 0.000000 
7.311697 65.235085 47.134216 0.000000 0.000000 0.000000 -12.065023 -47.281059 -2.724752 -41.070651 -6.274913 32.032218 38.544977 -7.516996 4.038299 5.479753 -12.097608 -31.816981 -3.455341 0.188895 -0.284551 0.000000 0.000000 0.000000 -16.031849 -42.342836 -3.370324 -16.590548 -6.425123 -42.739021 70.497907 12.317888 -4.314525 -30.401681 -17.817597 19.298346 -3.876104 0.688665 1.201370 0.000000 0.000000 0.000000 -16.896196 -43.785382 -5.947473 21.914978 6.899925 -8.253844 0.836247 1.444874 -1.505761 -0.222527 1.295862 1.343837 0.000000 0.000000 0.000000 1.532726 1.057100 -1.082680 2.211081 13.305693 0.228021 4.735523 18.902537 -5.141820 0.000000 0.000000 0.000000 1.629390 1.281920 -1.026278 0.683467 3.330787 -7.295937 -0.824709 -4.033252 0.979182 -57.988347 3.279477 -46.536353 -179.896623 -63.191763 -177.590301 0.000000 0.000000 0.000000 1.682995 0.714216 -1.398578 2.422369 14.527575 -5.398874 -5.651623 1.399688 0.491645 -49.403267 17.533319 86.531346 -173.420197 67.187628 171.986895 0.000000 0.000000 0.000000 
6.678851 66.899429 43.476936 0.000000 0.000000 0.000000 -10.055019 -46.252429 -0.886345 -42.091071 -5.058703 30.176117 38.792722 -7.315529 4.411798 4.985406 -12.539913 -29.341536 -4.403776 0.056300 -0.103742 0.000000 0.000000 0.000000 -13.894829 -41.524900 -1.610558 -15.483139 -8.810627 -39.692674 67.374728 10.308487 -2.794920 -34.455569 -19.164619 16.370241 -1.528918 0.746456 0.520635 0.000000 0.000000 0.000000 -14.864267 -43.657869 -3.850881 20.722137 7.274134 -7.803432 1.233174 1.327428 -1.701095 -0.060462 1.641069 1.314447 0.000000 0.000000 0.000000 1.521317 1.033432 -1.277949 2.312578 12.862121 -0.232931 4.239417 17.722917 -4.914618 0.000000 0.000000 0.000000 1.854066 1.208899 -1.215079 0.696683 3.061240 -7.043912 -1.424038 -3.123282 -0.198930 -58.750227 2.636058 -46.165300 178.512718 -63.623526 -179.225106 0.000000 0.000000 0.000000 2.009318 0.721893 -1.586311 2.502030 15.056595 -6.574040 -4.639593 1.615234 0.873918 -51.147072 16.552718 85.137188 -174.658456 64.634586 173.176769 0.000000 0.000000 0.000000 
